<?xml version="1.0" encoding="UTF-8" standalone="no"?>
<svg
   width="50"
   height="50"
   viewBox="0 0 50 50"
   fill="none"
   version="1.1"
   id="svg17"
   sodipodi:docname="IMG_5325.svg"
   inkscape:version="1.4 (86a8ad7, 2024-10-11)"
   xmlns:inkscape="http://www.inkscape.org/namespaces/inkscape"
   xmlns:sodipodi="http://sodipodi.sourceforge.net/DTD/sodipodi-0.dtd"
   xmlns="http://www.w3.org/2000/svg"
   xmlns:svg="http://www.w3.org/2000/svg">
  <sodipodi:namedview
     id="namedview17"
     pagecolor="#ffffff"
     bordercolor="#111111"
     borderopacity="1"
     inkscape:showpageshadow="0"
     inkscape:pageopacity="0"
     inkscape:pagecheckerboard="1"
     inkscape:deskcolor="#d1d1d1"
     inkscape:zoom="7.3212121"
     inkscape:cx="64.265315"
     inkscape:cy="36.947434"
     inkscape:window-width="2560"
     inkscape:window-height="1369"
     inkscape:window-x="1912"
     inkscape:window-y="-8"
     inkscape:window-maximized="1"
     inkscape:current-layer="g17" />
  <g
     clip-path="url(#clip0_10776_23398)"
     id="g17"
     transform="translate(0.81953644,1.0927152)">
    <path
       d="M 11.8808,15.8291 C 5.2177,16.4268 0,22.0681 0,28.9339 0,36.2079 5.8392,42.097 13.0515,42.097 h 10.9124 c 0.0144,0 0.0144,0 0.0289,0 C 16.7949,42.0824 10.9702,36.1933 10.9702,28.9339 v -8.2798 c 0,-1.7055 0.318,-3.3381 0.9106,-4.825 z"
       fill="#ff42a5"
       id="path1" />
    <path
       d="m 36.1193,15.8291 c 0.5926,1.5014 0.9106,3.1341 0.9106,4.8396 v 8.2798 c 0,7.2594 -5.8247,13.1485 -13.0226,13.1631 0.0145,0 0.0145,0 0.0289,0 h 10.9124 c 7.2123,0 13.0515,-5.8892 13.0515,-13.1631 0,-6.8804 -5.2177,-12.5217 -11.8808,-13.1194 z"
       fill="#b3d661"
       id="path2" />
    <path
       d="m 23.9637,42.0972 c -0.0145,0 -0.0145,0 -0.0289,0 0.0144,0 0.0289,0 0.0289,0 0.0144,0 0.0144,0 0.0289,0 0,0 -0.0145,0 -0.0289,0 z m 0,-34.60599 c -5.5213,0 -10.2331,3.45479 -12.1409,8.33809 0.3902,-0.0292 0.7804,-0.0583 1.1707,-0.0583 h 10.9124 c 0.0144,0 0.0433,0 0.0578,0 0.0144,0 0.0433,0 0.0578,0 h 10.9123 c 0.3903,0 0.795,0.0146 1.1708,0.0583 C 34.2112,10.946 29.4849,7.49121 23.9637,7.49121 Z"
       fill="#51a5c9"
       id="path3" />
    <path
       d="M 23.9207,15.771 H 12.9939 c -0.3902,0 -0.7949,0.0146 -1.1707,0.0583 -0.5926,1.5014 -0.9106,3.1341 -0.9106,4.8396 v 8.2798 c 0,7.2594 5.8247,13.1485 13.0226,13.1631 0.0144,0 0.0144,0 0.0289,0 -7.1834,-0.0292 -12.9937,-5.9183 -12.9937,-13.1631 0,-7.2594 5.8103,-13.134 12.9937,-13.1631 C 23.9496,15.771 23.9352,15.771 23.9207,15.771 Z"
       fill="#4c4789"
       id="path4" />
    <path
       d="M 34.9487,15.771 H 24.0363 c -0.0144,0 -0.0433,0 -0.0578,0 7.1834,0.0292 12.9937,5.9183 12.9937,13.1631 0,7.2594 -5.8103,13.1339 -12.9937,13.1631 0.0145,0 0.0145,0 0.0289,0 C 31.2053,42.0826 37.03,36.1935 37.03,28.9341 v -8.2798 c 0,-1.7055 -0.318,-3.3381 -0.9106,-4.8396 -0.3902,-0.0291 -0.7805,-0.0437 -1.1707,-0.0437 z"
       fill="#398b4d"
       id="path5" />
    <path
       d="m 23.9639,15.771 c -7.1834,0.0292 -12.9937,5.9183 -12.9937,13.1631 0,7.2594 5.8103,13.1339 12.9937,13.1631 C 31.1473,42.068 36.9576,36.1789 36.9576,28.9341 36.972,21.6893 31.1473,15.8002 23.9639,15.771 Z"
       fill="#0b0223"
       id="path6" />
    <path
       d="m 23.9929,42.0972 c 7.2081,0 13.0515,-5.8933 13.0515,-13.1631 0,-7.2698 -5.8434,-13.1631 -13.0515,-13.1631 -7.2081,0 -13.0515,5.8933 -13.0515,13.1631 0,7.2698 5.8434,13.1631 13.0515,13.1631 z"
       fill="#0b0223"
       id="path7" />
    <path
       d="m 20.7696,28.1469 c 0,1.1661 -0.9394,2.1137 -2.0957,2.1137 -1.1563,0 -2.0958,-0.9476 -2.0958,-2.1137 0,-1.1662 0.9395,-2.1137 2.0958,-2.1137 1.1563,0 2.0957,0.9475 2.0957,2.1137 z"
       fill="#ffffff"
       id="path8" />
    <path
       d="m 31.2196,29.3129 h -3.1797 c -0.5637,0 -1.0262,-0.4665 -1.0262,-1.035 v -0.2478 c 0,-0.5685 0.4625,-1.035 1.0262,-1.035 h 3.1797 c 0.5637,0 1.0262,0.4665 1.0262,1.035 v 0.2478 c 0,0.5685 -0.4625,1.035 -1.0262,1.035 z"
       fill="#ffffff"
       id="path9" />
    <path
       d="m 20.7984,28.1762 c 0,1.1661 -0.9394,2.1137 -2.0957,2.1137 -1.1563,0 -2.0958,-0.9476 -2.0958,-2.1137 0,-1.1662 0.9395,-2.1137 2.0958,-2.1137 1.1563,0 2.0957,0.9475 2.0957,2.1137 z"
       fill="#ffffff"
       id="path10" />
    <path
       d="M 31.2338,29.3422 H 28.054 c -0.5637,0 -1.0262,-0.4665 -1.0262,-1.035 v -0.2478 c 0,-0.5685 0.4625,-1.035 1.0262,-1.035 h 3.1798 c 0.5637,0 1.0262,0.4665 1.0262,1.035 v 0.2478 c 0,0.5685 -0.4481,1.035 -1.0262,1.035 z"
       fill="#ffffff"
       id="path11" />
    <path
       d="m 74.7865,19.6637 c 1.118,1.1089 1.677,2.7803 1.677,5.014 v 8.5215 h -6.1593 v -7.458 c 0,-1.7065 -0.609,-2.5598 -1.827,-2.5598 -0.3154,-0.0123 -0.6296,0.0458 -0.9197,0.1703 -0.2901,0.1244 -0.5488,0.3119 -0.7573,0.5489 -0.425,0.484 -0.6374,1.243 -0.6374,2.2769 v 7.0081 H 60 V 18.273 h 5.8594 v 1.4725 c 0.5692,-0.5708 1.2537,-1.0136 2.0077,-1.2987 0.7935,-0.2958 1.6345,-0.4437 2.4814,-0.4363 1.8407,-0.0068 3.32,0.5443 4.438,1.6532 z"
       fill="#ffffff"
       id="path12" />
    <path
       d="m 79.9674,32.4632 c -1.2665,-0.6204 -2.3374,-1.5781 -3.095,-2.7677 -0.7525,-1.1949 -1.141,-2.583 -1.118,-3.9949 -0.0225,-1.4108 0.3659,-2.7977 1.118,-3.9915 0.7591,-1.1782 1.8306,-2.1222 3.095,-2.7269 1.4016,-0.6468 2.9268,-0.9817 4.4704,-0.9817 1.5436,0 3.0688,0.3349 4.4704,0.9817 1.257,0.6049 2.3196,1.5495 3.0677,2.7269 0.7495,1.1999 1.1365,2.5906 1.1146,4.0051 0.0202,1.4054 -0.3631,2.7871 -1.1044,3.9813 -0.7483,1.1839 -1.8102,2.1372 -3.0677,2.7541 -1.3991,0.6556 -2.9253,0.9954 -4.4704,0.9954 -1.5451,0 -3.0713,-0.3398 -4.4704,-0.9954 z m 6.2003,-4.5811 c 0.4861,-0.6142 0.7289,-1.386 0.6817,-2.1679 0.0491,-0.7769 -0.1941,-1.5441 -0.6817,-2.1508 -0.2233,-0.2395 -0.4935,-0.4305 -0.7937,-0.561 -0.3002,-0.1306 -0.6241,-0.198 -0.9515,-0.198 -0.3275,0 -0.6514,0.0674 -0.9516,0.198 -0.3002,0.1305 -0.5704,0.3215 -0.7937,0.561 -0.4876,0.6067 -0.7308,1.3739 -0.6817,2.1508 -0.0472,0.7819 0.1956,1.5537 0.6817,2.1679 0.2203,0.2445 0.4894,0.4401 0.7901,0.5739 0.3006,0.1339 0.6261,0.203 0.9552,0.203 0.329,0 0.6545,-0.0691 0.9551,-0.203 0.3007,-0.1338 0.5698,-0.3294 0.7901,-0.5739 z"
       fill="#ffffff"
       id="path13" />
    <path
       d="m 117.408,18.2729 v 8.2318 c 0,2.2202 -0.673,3.9335 -2.018,5.1402 -1.346,1.2066 -3.227,1.8065 -5.645,1.7997 -0.932,0.0118 -1.86,-0.1216 -2.751,-0.3954 -0.806,-0.2547 -1.536,-0.7042 -2.127,-1.3089 -0.594,0.6026 -1.323,1.0558 -2.127,1.3226 -0.891,0.2719 -1.819,0.4007 -2.7503,0.3817 -2.4383,0 -4.3244,-0.5999 -5.6583,-1.7997 -1.3339,-1.1998 -2.002,-2.9178 -2.0043,-5.1538 v -8.2182 h 6.1628 v 7.8228 c 0,1.6361 0.5442,2.4542 1.6331,2.4542 1.088,0 1.643,-0.8181 1.663,-2.4542 v -7.8228 h 6.163 v 7.8228 c 0,1.6361 0.553,2.4542 1.66,2.4542 0.237,0.0202 0.476,-0.0205 0.693,-0.1183 0.217,-0.0978 0.405,-0.2496 0.547,-0.4407 0.266,-0.3818 0.396,-1.0226 0.396,-1.8816 v -7.8364 z"
       fill="#ffffff"
       id="path14" />
    <path
       d="m 119.852,32.4834 c -0.222,-0.2173 -0.396,-0.4775 -0.514,-0.7647 -0.117,-0.2872 -0.174,-0.5954 -0.168,-0.9055 -0.01,-0.3086 0.046,-0.6157 0.164,-0.9013 0.117,-0.2855 0.294,-0.5429 0.518,-0.7553 0.451,-0.4081 1.038,-0.6341 1.646,-0.6341 0.609,0 1.195,0.226 1.646,0.6341 0.225,0.2119 0.402,0.4692 0.52,0.7548 0.117,0.2857 0.173,0.5931 0.162,0.9018 0.007,0.3102 -0.05,0.6186 -0.167,0.9059 -0.117,0.2874 -0.292,0.5475 -0.515,0.7643 -0.44,0.4285 -1.031,0.6683 -1.646,0.6683 -0.615,0 -1.205,-0.2398 -1.646,-0.6683 z"
       fill="#ff42a5"
       id="path15" />
    <path
       d="m 139.41,18.1913 v 10.686 c 0,2.3633 -0.612,4.113 -1.837,5.2492 -1.225,1.1362 -3.013,1.7043 -5.365,1.7043 -1.192,0.0102 -2.38,-0.1389 -3.532,-0.4431 -1,-0.2472 -1.94,-0.6935 -2.764,-1.3123 l 1.479,-2.6758 c 0.609,0.4799 1.303,0.8397 2.045,1.0601 0.802,0.2588 1.639,0.3922 2.482,0.3954 1.288,0 2.239,-0.2931 2.849,-0.8726 0.611,-0.5795 0.931,-1.4521 0.931,-2.628 v -0.5488 c -0.973,1.068 -2.325,1.6009 -4.056,1.5986 -1.125,0.0124 -2.235,-0.2547 -3.232,-0.7771 -0.96,-0.4998 -1.764,-1.2546 -2.324,-2.1815 -0.584,-0.9789 -0.882,-2.102 -0.859,-3.2416 -0.023,-1.1408 0.274,-2.2651 0.859,-3.245 0.559,-0.9222 1.361,-1.6733 2.318,-2.1713 0.996,-0.5224 2.106,-0.7895 3.231,-0.7771 1.861,0 3.277,0.6124 4.247,1.8372 v -1.6566 z m -4.615,8.2897 c 0.312,-0.2889 0.558,-0.642 0.721,-1.035 0.163,-0.3931 0.239,-0.8167 0.223,-1.2419 0.016,-0.4257 -0.06,-0.8499 -0.223,-1.2435 -0.163,-0.3936 -0.409,-0.7473 -0.721,-1.0369 -0.664,-0.5927 -1.531,-0.9043 -2.42,-0.8692 -0.893,-0.0333 -1.764,0.2779 -2.434,0.8692 -0.315,0.2885 -0.563,0.6418 -0.727,1.0355 -0.165,0.3937 -0.243,0.8184 -0.227,1.2449 -0.016,0.426 0.062,0.8502 0.227,1.2433 0.164,0.3931 0.413,0.7458 0.727,1.0336 0.67,0.5914 1.541,0.9026 2.434,0.8692 0.889,0.0352 1.756,-0.2765 2.42,-0.8692 z"
       fill="#ff42a5"
       id="path16" />
    <path
       d="m 154.677,18.1913 v 10.6859 c 0,2.352 -0.612,4.1006 -1.837,5.2459 -1.225,1.1453 -3.015,1.7134 -5.369,1.7043 -1.191,0.0068 -2.377,-0.1457 -3.528,-0.4534 -1.001,-0.2472 -1.942,-0.6935 -2.767,-1.3123 l 1.479,-2.6621 c 0.608,0.4802 1.302,0.8399 2.045,1.0601 0.801,0.259 1.637,0.3924 2.478,0.3954 1.289,0 2.24,-0.2932 2.853,-0.8726 0.614,-0.5795 0.917,-1.4589 0.917,-2.6349 v -0.5419 c -0.97,1.068 -2.322,1.6009 -4.056,1.5986 -1.125,0.0123 -2.235,-0.2547 -3.232,-0.7772 -0.96,-0.4998 -1.764,-1.2545 -2.324,-2.1815 -0.587,-0.9781 -0.887,-2.1013 -0.866,-3.2415 -0.023,-1.1408 0.275,-2.2651 0.859,-3.245 0.56,-0.9269 1.364,-1.6817 2.325,-2.1815 0.996,-0.5225 2.106,-0.7895 3.231,-0.7772 1.861,0 3.277,0.6124 4.247,1.8372 v -1.6463 z m -4.615,8.2897 c 0.311,-0.2895 0.556,-0.6428 0.719,-1.0358 0.162,-0.3929 0.238,-0.8163 0.222,-1.2411 0.016,-0.4254 -0.06,-0.8492 -0.222,-1.2427 -0.163,-0.3935 -0.408,-0.7474 -0.719,-1.0377 -0.684,-0.5617 -1.542,-0.8687 -2.427,-0.8687 -0.885,0 -1.743,0.307 -2.427,0.8687 -0.315,0.2879 -0.564,0.6411 -0.729,1.0349 -0.165,0.3938 -0.242,0.8188 -0.225,1.2455 -0.017,0.4261 0.061,0.8506 0.225,1.2438 0.165,0.3933 0.414,0.7458 0.729,1.0331 0.684,0.5617 1.542,0.8687 2.427,0.8687 0.885,0 1.743,-0.307 2.427,-0.8687 z"
       fill="#ff42a5"
       id="path17" />
  </g>
  <defs
     id="defs17">
    <clipPath
       id="clip0_10776_23398">
      <rect
         width="164.81599"
         height="49"
         fill="#ffffff"
         transform="translate(0,0.5)"
         id="rect17"
         x="0"
         y="0" />
    </clipPath>
  </defs>
</svg>
