<?xml version="1.0" encoding="UTF-8" standalone="no"?>
<svg
   viewBox="0 0 87.999997 66"
   version="1.1"
   id="svg6"
   width="88"
   height="66"
   xmlns="http://www.w3.org/2000/svg"
   xmlns:svg="http://www.w3.org/2000/svg"
   xmlns:rdf="http://www.w3.org/1999/02/22-rdf-syntax-ns#"
   xmlns:cc="http://creativecommons.org/ns#"
   xmlns:dc="http://purl.org/dc/elements/1.1/">
  <title
     id="title6">Google Drive</title>
  <defs
     id="defs6" />
  <path
     d="m 22.595063,49.08981 2.224265,3.841912 c 0.462185,0.808824 1.126575,1.444328 1.906512,1.906513 l 7.943803,-13.75 H 18.782038 c 0,0.895483 0.231092,1.790966 0.693277,2.59979 z"
     fill="#0066da"
     id="path1"
     style="stroke-width:0.577731" />
  <path
     d="M 44,24.911764 36.056197,11.161765 c -0.779937,0.462185 -1.444327,1.097689 -1.906512,1.906512 l -14.67437,25.420168 a 5.2342437,5.2342437 0 0 0 -0.693277,2.59979 h 15.887605 z"
     fill="#00ac47"
     id="path2"
     style="stroke-width:0.577731" />
  <path
     d="m 61.27416,54.838235 c 0.779936,-0.462184 1.444327,-1.097689 1.906512,-1.906512 l 0.92437,-1.588761 4.419643,-7.654937 c 0.462185,-0.808824 0.693277,-1.704307 0.693277,-2.59979 h -15.88876 l 3.380882,6.643907 z"
     fill="#ea4335"
     id="path3"
     style="stroke-width:0.577731" />
  <path
     d="M 44,24.911764 51.943802,11.161765 C 51.163865,10.69958 50.268382,10.468487 49.344013,10.468487 H 38.655987 c -0.924369,0 -1.819853,0.259979 -2.59979,0.693278 z"
     fill="#00832d"
     id="path4"
     style="stroke-width:0.577731" />
  <path
     d="M 53.330357,41.088235 H 34.669643 l -7.943803,13.75 c 0.779937,0.462186 1.675421,0.693278 2.59979,0.693278 h 29.34874 c 0.924369,0 1.819853,-0.259979 2.59979,-0.693278 z"
     fill="#2684fc"
     id="path5"
     style="stroke-width:0.577731" />
  <path
     d="M 61.1875,25.778361 53.850315,13.068277 C 53.38813,12.259454 52.723739,11.62395 51.943802,11.161765 L 44,24.911764 53.330357,41.088235 h 15.858718 c 0,-0.895483 -0.231092,-1.790966 -0.693277,-2.59979 z"
     fill="#ffba00"
     id="path6"
     style="stroke-width:0.577731" />
  <metadata
     id="metadata6">
    <rdf:RDF>
      <cc:Work
         rdf:about="">
        <dc:creator>
          <cc:Agent>
            <dc:title>Proxy-alt</dc:title>
          </cc:Agent>
        </dc:creator>
        <dc:rights>
          <cc:Agent>
            <dc:title>Open Domain</dc:title>
          </cc:Agent>
        </dc:rights>
        <dc:source>Inkscape.org</dc:source>
        <dc:language>English</dc:language>
        <dc:contributor>
          <cc:Agent>
            <dc:title>Proxy-alt</dc:title>
          </cc:Agent>
        </dc:contributor>
        <dc:title>Google Drive</dc:title>
        <dc:date>4/22/2025</dc:date>
        <dc:identifier>Google Drive Logo</dc:identifier>
        <dc:relation>Google LLC</dc:relation>
        <dc:subject>
          <rdf:Bag>
            <rdf:li>Google Drive</rdf:li>
            <rdf:li>White bg</rdf:li>
          </rdf:Bag>
        </dc:subject>
        <dc:coverage>Meant for petezahgames.com</dc:coverage>
        <dc:description>Google drive with a white background</dc:description>
      </cc:Work>
    </rdf:RDF>
  </metadata>
</svg>
