<?xml version="1.0" encoding="UTF-8" standalone="no"?>
<!-- Generator: Adobe Illustrator 18.1.1, SVG Export Plug-In . SVG Version: 6.00 Build 0)  -->

<svg
   version="1.1"
   id="Layer_1"
   x="0px"
   y="0px"
   viewBox="0 0 88 66"
   enable-background="new 0 0 144 144"
   xml:space="preserve"
   width="88"
   height="66"
   xmlns="http://www.w3.org/2000/svg"
   xmlns:svg="http://www.w3.org/2000/svg"
   xmlns:rdf="http://www.w3.org/1999/02/22-rdf-syntax-ns#"
   xmlns:cc="http://creativecommons.org/ns#"
   xmlns:dc="http://purl.org/dc/elements/1.1/"><title
   id="title2">Pintrest Logo</title><defs
   id="defs2" />

<g
   id="layer6"><path
     fill="#bd081c"
     d="m 44,10.861395 c -12.241933,0 -22.155237,9.913304 -22.155237,22.155237 0,9.381047 5.821571,17.398183 14.07157,20.624996 -0.199597,-1.763104 -0.365928,-4.424393 0.06653,-6.353828 0.399193,-1.729838 2.594758,-11.011087 2.594758,-11.011087 0,0 -0.665323,-1.330644 -0.665323,-3.293346 0,-3.093749 1.796371,-5.389111 3.991935,-5.389111 1.896169,0 2.794354,1.430443 2.794354,3.127015 0,1.896169 -1.19758,4.757056 -1.829637,7.385079 -0.532258,2.195563 1.097782,3.991935 3.293346,3.991935 3.925403,0 6.95262,-4.158265 6.95262,-10.146167 0,-5.289314 -3.825604,-9.01512 -9.247982,-9.01512 -6.287297,0 -10.013103,4.72379 -10.013103,9.61391 0,1.896169 0.731855,3.958668 1.663306,5.05645 0.166331,0.232862 0.199597,0.399193 0.166331,0.632057 -0.166331,0.698588 -0.532258,2.195563 -0.59879,2.494959 -0.0998,0.399192 -0.332662,0.498992 -0.731855,0.299395 -2.761088,-1.297379 -4.490927,-5.32258 -4.490927,-8.58266 0,-6.985885 5.089717,-13.406247 14.637094,-13.406247 7.684475,0 13.639111,5.48891 13.639111,12.774191 0,7.617941 -4.823588,13.772175 -11.476813,13.772175 -2.22883,0 -4.357862,-1.164316 -5.089716,-2.528227 0,0 -1.097782,4.224799 -1.363911,5.256049 -0.498992,1.929435 -1.862903,4.324596 -2.761089,5.82157 2.0625,0.632057 4.258064,0.997984 6.553426,0.997984 12.241934,0 22.155238,-9.913304 22.155238,-22.155237 C 66.155238,20.774699 56.241934,10.861395 44,10.861395 Z"
     id="path1"
     style="stroke-width:0.332661" /></g><metadata
   id="metadata2"><rdf:RDF><cc:Work
       rdf:about=""><dc:creator><cc:Agent><dc:title>Proxy-alt</dc:title></cc:Agent></dc:creator><dc:rights><cc:Agent><dc:title>Open Domain</dc:title></cc:Agent></dc:rights><dc:source>Inkscape.org</dc:source><dc:language>English</dc:language><dc:contributor><cc:Agent><dc:title>Proxy-alt</dc:title></cc:Agent></dc:contributor><dc:title>Pintrest Logo</dc:title><dc:date>4/22/2025</dc:date><dc:identifier>Pintrest</dc:identifier><dc:relation>Pintreset Inc</dc:relation><dc:subject><rdf:Bag><rdf:li>Pintrest</rdf:li><rdf:li>logo</rdf:li><rdf:li>white bg</rdf:li></rdf:Bag></dc:subject><dc:description>Pintrest Logo on white background</dc:description></cc:Work></rdf:RDF></metadata></svg>
